<?xml version="1.0" encoding="utf-8"?>
<!-- Generator: Adobe Illustrator 26.5.0, SVG Export Plug-In . SVG Version: 6.00 Build 0)  -->
<svg version="1.1" id="Layer_1" xmlns="http://www.w3.org/2000/svg" xmlns:xlink="http://www.w3.org/1999/xlink" x="0px" y="0px"
	 viewBox="0 0 512 512" style="enable-background:new 0 0 512 512;" xml:space="preserve">
<style type="text/css">
	.st0{fill:url(#path7508_00000161609845924158085450000015159556941676425388_);}
	.st1{fill:url(#path7510_00000178901219489050744900000005875478633856307844_);}
</style>
<g id="XMLID_1_">
	
		<linearGradient id="path7508_00000121250498982731382120000003620195671491700357_" gradientUnits="userSpaceOnUse" x1="-617.8667" y1="597.8251" x2="-256.7744" y2="958.9678" gradientTransform="matrix(0.9988 0 0 0.9987 688.2799 -516.7598)">
		<stop  offset="0" style="stop-color:#000000"/>
		<stop  offset="1" style="stop-color:#FFFFFF"/>
	</linearGradient>
	<path id="path7508" style="fill:url(#path7508_00000121250498982731382120000003620195671491700357_);" d="M255.56,381.07
		c113.22,154.47,224.1-43.15,223.95-161.93C479.36,78.72,337.04,0.17,255.41,0.17C124.64,0.31,0.02,108.41,0.02,256.44
		c0,164.41,142.91,255.54,255.4,255.54c-25.45-3.66-110.44-21.8-111.61-217.51c-0.73-132.23,43.15-185.19,111.32-161.93
		c1.46,0.59,75.19,29.69,75.19,124.63C330.6,351.82,255.56,381.07,255.56,381.07z"/>
	
		<linearGradient id="path7510_00000152947546358741478990000009106632764188239276_" gradientUnits="userSpaceOnUse" x1="-240.4064" y1="942.7218" x2="-601.4979" y2="581.5799" gradientTransform="matrix(0.9988 0 0 0.9987 688.2799 -516.7598)">
		<stop  offset="0" style="stop-color:#000000"/>
		<stop  offset="1" style="stop-color:#FFFFFF"/>
	</linearGradient>
	<path id="path7510" style="fill:url(#path7510_00000152947546358741478990000009106632764188239276_);" d="M255.41,132.55
		C180.52,106.8,88.95,168.39,88.95,291.99c0,201.71,149.49,220,167.63,220c130.92,0,255.4-108.1,255.4-256.13
		c0-164.41-142.91-255.54-255.4-255.54c31.16-4.39,168.07,33.79,168.07,220.88c0,121.99-102.25,188.55-168.8,160.03
		c-1.46-0.59-75.19-29.69-75.19-124.63C180.67,162.1,255.41,132.55,255.41,132.55z"/>
</g>
</svg>
